<?xml version="1.0" encoding="utf-8"?>
<svg viewBox="0 0 264 280" width="450px" height="477.273px" xmlns="http://www.w3.org/2000/svg">
  <defs/>
  <g id="avatarmaker" stroke="none" stroke-width="1" fill="none" fill-rule="evenodd">
    <g transform="translate(-825.000000, -1100.000000)" id="avatarmaker/Circle">
      <g transform="translate(825.000000, 1100.000000)">
        <g id="Circle" stroke-width="1" fill-rule="evenodd" transform="translate(12.000000, 40.000000)">
          <mask id="mask-2" fill="white">
            <circle cx="120" cy="120" r="120"/>
          </mask>
          <circle id="Circle-Background" cx="120" cy="120" r="120" fill="#E6E6E6"/>
          <g id="ColorPaletteBlue01" mask="url(#mask-2)" fill="#65C9FF">
            <rect id="ðŸ–Color" x="0" y="0" width="240" height="240"/>
          </g>
        </g>
        <mask id="mask-4" fill="white">
          <path d="M12,160 C12,226.27417 65.72583,280 132,280 C198.27417,280 252,226.27417 252,160 L264,160 L264,-1.42108547e-14 L-3.19744231e-14,-1.42108547e-14 L-3.19744231e-14,160 L12,160 Z"/>
        </mask>
        <g id="Mask"/>
        <g id="avatarmaker" stroke-width="1" fill-rule="evenodd" mask="url(#mask-4)">
          <g id="Body" transform="translate(32.000000, 36.000000)">
            <mask id="mask-6" fill="white">
              <path d="M124,144.610951 L124,163 L128,163 L128,163 C167.764502,163 200,195.235498 200,235 L200,244 L0,244 L0,235 C-4.86974701e-15,195.235498 32.235498,163 72,163 L72,163 L76,163 L76,144.610951 C58.7626345,136.422372 46.3722246,119.687011 44.3051388,99.8812385 C38.4803105,99.0577866 34,94.0521096 34,88 L34,74 C34,68.0540074 38.3245733,63.1180731 44,62.1659169 L44,56 L44,56 C44,25.072054 69.072054,5.68137151e-15 100,0 L100,0 L100,0 C130.927946,-5.68137151e-15 156,25.072054 156,56 L156,62.1659169 C161.675427,63.1180731 166,68.0540074 166,74 L166,88 C166,94.0521096 161.51969,99.0577866 155.694861,99.8812385 C153.627775,119.687011 141.237365,136.422372 124,144.610951 Z"/>
            </mask>
            <path d="M124,144.610951 L124,163 L128,163 L128,163 C167.764502,163 200,195.235498 200,235 L200,244 L0,244 L0,235 C-4.86974701e-15,195.235498 32.235498,163 72,163 L72,163 L76,163 L76,144.610951 C58.7626345,136.422372 46.3722246,119.687011 44.3051388,99.8812385 C38.4803105,99.0577866 34,94.0521096 34,88 L34,74 C34,68.0540074 38.3245733,63.1180731 44,62.1659169 L44,56 L44,56 C44,25.072054 69.072054,5.68137151e-15 100,0 L100,0 L100,0 C130.927946,-5.68137151e-15 156,25.072054 156,56 L156,62.1659169 C161.675427,63.1180731 166,68.0540074 166,74 L166,88 C166,94.0521096 161.51969,99.0577866 155.694861,99.8812385 C153.627775,119.687011 141.237365,136.422372 124,144.610951 Z" fill="#D0C6AC"/>
            <g id="Skin/ðŸ‘¶ðŸ½-03-Brown" mask="url(#mask-6)" fill="#EDB98A">
              <g transform="translate(-32.000000, 0.000000)" id="Color">
                <rect x="0" y="0" width="264" height="244"/>
              </g>
            </g>
            <path d="M156,79 L156,102 C156,132.927946 130.927946,158 100,158 C69.072054,158 44,132.927946 44,102 L44,79 L44,94 C44,124.927946 69.072054,150 100,150 C130.927946,150 156,124.927946 156,94 L156,79 Z" id="Neck-Shadow" fill-opacity="0.100000001" fill="#000000" mask="url(#mask-6)"/>
          </g>
          <g id="Clothing/Hoodie" transform="translate(0.000000, 170.000000)">
            <defs>
              <path d="M108,13.0708856 C90.0813006,15.075938 76.2798424,20.5518341 76.004203,34.6449676 C50.1464329,45.5680933 32,71.1646257 32,100.999485 L32,100.999485 L32,110 L232,110 L232,100.999485 C232,71.1646257 213.853567,45.5680933 187.995797,34.6449832 C187.720158,20.5518341 173.918699,15.075938 156,13.0708856 L156,32 L156,32 C156,45.254834 145.254834,56 132,56 L132,56 C118.745166,56 108,45.254834 108,32 L108,13.0708856 Z" id="react-path-1"/>
            </defs>
            <mask id="react-mask-2" fill="white">
              <path d="M108,13.0708856 C90.0813006,15.075938 76.2798424,20.5518341 76.004203,34.6449676 C50.1464329,45.5680933 32,71.1646257 32,100.999485 L32,100.999485 L32,110 L232,110 L232,100.999485 C232,71.1646257 213.853567,45.5680933 187.995797,34.6449832 C187.720158,20.5518341 173.918699,15.075938 156,13.0708856 L156,32 L156,32 C156,45.254834 145.254834,56 132,56 L132,56 C118.745166,56 108,45.254834 108,32 L108,13.0708856 Z"/>
            </mask>
            <path d="M108,13.0708856 C90.0813006,15.075938 76.2798424,20.5518341 76.004203,34.6449676 C50.1464329,45.5680933 32,71.1646257 32,100.999485 L32,100.999485 L32,110 L232,110 L232,100.999485 C232,71.1646257 213.853567,45.5680933 187.995797,34.6449832 C187.720158,20.5518341 173.918699,15.075938 156,13.0708856 L156,32 L156,32 C156,45.254834 145.254834,56 132,56 L132,56 C118.745166,56 108,45.254834 108,32 L108,13.0708856 Z" id="Hoodie" fill="#B7C1DB" fill-rule="evenodd"/>
            <g id="Color/Palette/Gray-01" mask="url(#react-mask-2)" fill-rule="evenodd" fill="#262E33">
              <rect id="ðŸ–Color" x="0" y="0" width="264" height="110"/>
            </g>
            <path d="M102,61.7390531 L102,110 L95,110 L95,58.1502625 C97.2037542,59.4600576 99.5467694,60.6607878 102,61.7390531 Z M169,58.1502625 L169,98.5 C169,100.432997 167.432997,102 165.5,102 C163.567003,102 162,100.432997 162,98.5 L162,61.7390531 C164.453231,60.6607878 166.796246,59.4600576 169,58.1502625 Z" id="Straps" fill="#F4F4F4" fill-rule="evenodd" mask="url(#react-mask-2)"/>
            <path d="M90.9601329,12.7243537 C75.9093095,15.5711782 65.5,21.2428847 65.5,32.3076923 C65.5,52.0200095 98.5376807,68 132,68 C165.462319,68 198.5,52.0200095 198.5,32.3076923 C198.5,21.2428847 188.09069,15.5711782 173.039867,12.7243537 C182.124921,16.0744598 188,21.7060546 188,31.0769231 C188,51.4689754 160.178795,68 132,68 C103.821205,68 76,51.4689754 76,31.0769231 C76,21.7060546 81.8750795,16.0744598 90.9601329,12.7243537 Z" id="Shadow" fill-opacity="0.16" fill="#000000" fill-rule="evenodd" mask="url(#react-mask-2)"/>
          </g>
          <g id="Face" transform="translate(76.000000, 82.000000)" fill="#000000">
            <g id="Mouth/Smile" transform="translate(2.000000, 52.000000)">
              <defs>
                <path d="M35.117844,15.1280772 C36.1757121,24.6198025 44.2259873,32 54,32 C63.8042055,32 71.8740075,24.574136 72.8917593,15.0400546 C72.9736685,14.272746 72.1167429,13 71.042767,13 C56.1487536,13 44.7379213,13 37.0868244,13 C36.0066168,13 35.0120058,14.1784435 35.117844,15.1280772 Z" id="react-path-3"/>
              </defs>
              <mask id="react-mask-4" fill="white">
                <path d="M35.117844,15.1280772 C36.1757121,24.6198025 44.2259873,32 54,32 C63.8042055,32 71.8740075,24.574136 72.8917593,15.0400546 C72.9736685,14.272746 72.1167429,13 71.042767,13 C56.1487536,13 44.7379213,13 37.0868244,13 C36.0066168,13 35.0120058,14.1784435 35.117844,15.1280772 Z"/>
              </mask>
              <path d="M35.117844,15.1280772 C36.1757121,24.6198025 44.2259873,32 54,32 C63.8042055,32 71.8740075,24.574136 72.8917593,15.0400546 C72.9736685,14.272746 72.1167429,13 71.042767,13 C56.1487536,13 44.7379213,13 37.0868244,13 C36.0066168,13 35.0120058,14.1784435 35.117844,15.1280772 Z" id="Mouth" fill-opacity="0.699999988" fill="#000000" fill-rule="evenodd"/>
              <rect id="Teeth" fill="#FFFFFF" fill-rule="evenodd" mask="url(#react-mask-4)" x="39" y="2" width="31" height="16" rx="5"/>
              <g id="Tongue" stroke-width="1" fill-rule="evenodd" mask="url(#react-mask-4)" fill="#FF4F6D">
                <g transform="translate(38.000000, 24.000000)">
                  <circle cx="11" cy="11" r="11"/>
                  <circle cx="21" cy="11" r="11"/>
                </g>
              </g>
            </g>
            <g id="Nose/Default" transform="translate(28.000000, 40.000000)" fill-opacity="0.16">
              <path d="M16,8 C16,12.418278 21.372583,16 28,16 L28,16 C34.627417,16 40,12.418278 40,8" id="Nose"/>
            </g>
            <g id="Eyes/Squint-ðŸ˜Š" transform="translate(0.000000, 8.000000)">
              <defs>
                <path d="M14,14.0481187 C23.6099827,14.0481187 28,18.4994466 28,11.5617716 C28,4.62409673 21.7319865,0 14,0 C6.2680135,0 0,4.62409673 0,11.5617716 C0,18.4994466 4.39001726,14.0481187 14,14.0481187 Z" id="react-path-5"/>
                <path d="M14,14.0481187 C23.6099827,14.0481187 28,18.4994466 28,11.5617716 C28,4.62409673 21.7319865,0 14,0 C6.2680135,0 0,4.62409673 0,11.5617716 C0,18.4994466 4.39001726,14.0481187 14,14.0481187 Z" id="react-path-6"/>
              </defs>
              <g id="Eye" transform="translate(16.000000, 13.000000)">
                <mask id="react-mask-7" fill="white">
                  <path d="M14,14.0481187 C23.6099827,14.0481187 28,18.4994466 28,11.5617716 C28,4.62409673 21.7319865,0 14,0 C6.2680135,0 0,4.62409673 0,11.5617716 C0,18.4994466 4.39001726,14.0481187 14,14.0481187 Z"/>
                </mask>
                <path d="M14,14.0481187 C23.6099827,14.0481187 28,18.4994466 28,11.5617716 C28,4.62409673 21.7319865,0 14,0 C6.2680135,0 0,4.62409673 0,11.5617716 C0,18.4994466 4.39001726,14.0481187 14,14.0481187 Z" id="The-white-stuff" fill="#FFFFFF"/>
                <circle fill-opacity="0.699999988" fill="#000000" mask="url(#react-mask-7)" cx="14" cy="10" r="6"/>
              </g>
              <g id="Eye" transform="translate(68.000000, 13.000000)">
                <mask id="react-mask-8" fill="white">
                  <path d="M14,14.0481187 C23.6099827,14.0481187 28,18.4994466 28,11.5617716 C28,4.62409673 21.7319865,0 14,0 C6.2680135,0 0,4.62409673 0,11.5617716 C0,18.4994466 4.39001726,14.0481187 14,14.0481187 Z"/>
                </mask>
                <path d="M14,14.0481187 C23.6099827,14.0481187 28,18.4994466 28,11.5617716 C28,4.62409673 21.7319865,0 14,0 C6.2680135,0 0,4.62409673 0,11.5617716 C0,18.4994466 4.39001726,14.0481187 14,14.0481187 Z" id="Eyeball-Mask" fill="#FFFFFF"/>
                <circle fill-opacity="0.699999988" fill="#000000" mask="url(#react-mask-8)" cx="14" cy="10" r="6"/>
              </g>
            </g>
            <g id="Eyebrow/Natural/Default-Natural" fill-opacity="0.599999964">
              <path d="M26.0390934,6.21012364 C20.2775554,6.98346216 11.2929313,12.0052479 12.04426,17.8178111 C12.0689481,18.0080543 12.3567302,18.0673468 12.4809077,17.9084937 C14.9674041,14.7203351 34.1927973,10.0365481 41.1942673,11.0147151 C41.8350523,11.1044465 42.2580662,10.4430343 41.8210501,10.0302067 C38.0765663,6.49485426 31.2003792,5.51224825 26.0390934,6.21012364" id="Eyebrow" transform="translate(27.000000, 12.000000) rotate(5.000000) translate(-27.000000, -12.000000) "/>
              <path d="M85.0390934,6.21012364 C79.2775554,6.98346216 70.2929313,12.0052479 71.04426,17.8178111 C71.0689481,18.0080543 71.3567302,18.0673468 71.4809077,17.9084937 C73.9674041,14.7203351 93.1927973,10.0365481 100.194267,11.0147151 C100.835052,11.1044465 101.258066,10.4430343 100.82105,10.0302067 C97.0765663,6.49485426 90.2003792,5.51224825 85.0390934,6.21012364" id="Eyebrow" transform="translate(86.000000, 12.000000) scale(-1, 1) rotate(5.000000) translate(-86.000000, -12.000000) "/>
            </g>
          </g>
          <g id="Top" stroke-width="1" fill-rule="evenodd">
            <defs>
              <rect id="react-path-13" x="0" y="0" width="264" height="280"/>
              <path d="M180.14998,39.9204083 C177.390206,37.1003988 174.185913,34.7068297 171.069252,32.3065503 C170.381566,31.777442 169.682843,31.2610833 169.010544,30.7118441 C168.857687,30.5870323 167.291999,29.4657388 167.104691,29.0530544 C166.653816,28.0602634 166.915042,28.8332916 166.977255,27.6485857 C167.055857,26.150508 170.11064,21.9193194 167.831176,20.9490079 C166.828413,20.522232 165.039628,21.6579526 164.077671,22.0330592 C162.196235,22.7671676 160.291721,23.3932399 158.346734,23.9330847 C159.278588,22.0763407 161.055333,18.3594977 157.71591,19.3543018 C155.114345,20.1293431 152.690052,22.1219709 150.075777,23.0594018 C150.940735,21.6415124 154.399901,17.2479341 151.274209,17.0023366 C150.301549,16.925839 147.471201,18.7503735 146.423952,19.1395717 C143.287223,20.3054888 140.083264,21.0590571 136.789999,21.6525844 C125.59203,23.6707114 112.497238,23.0953019 102.1368,28.1934632 C94.1494796,32.1236942 86.262502,38.2220278 81.648386,45.987539 C77.2011742,53.472559 75.537818,61.6641751 74.6069673,70.2412987 C73.9239644,76.535909 73.8684412,83.0425652 74.1878671,89.3599905 C74.2922241,91.4297869 74.5250203,100.970847 77.5319724,98.0813859 C79.0300967,96.641688 79.019059,90.8282073 79.3963495,88.8604076 C80.1472513,84.9452748 80.870057,81.0126951 82.122006,77.2227096 C84.3282191,70.5439339 86.9307879,63.4296587 92.4269209,58.8297383 C95.9539853,55.8782066 98.4307906,51.8889248 101.806002,48.9112229 C103.322188,47.5738572 102.165231,47.7130963 104.602902,47.888571 C106.240504,48.006337 107.885464,48.0512961 109.52641,48.0942421 C113.322394,48.1928837 117.124399,48.16772 120.921387,48.1811407 C128.56821,48.208653 136.179243,48.316689 143.818708,47.9164188 C147.213653,47.7385955 150.617965,47.6423024 154.00388,47.3282597 C155.895349,47.152785 159.251496,45.9405668 160.808488,46.8669256 C162.233362,47.7144383 163.71309,50.4817719 164.736257,51.615144 C167.153525,54.2935659 170.035717,56.3392052 172.862385,58.5354911 C178.756547,63.114945 181.732392,68.8666908 183.522515,76.023241 C185.305949,83.1532854 184.805905,89.76815 187.013456,96.78479 C187.401784,98.0184813 188.428965,100.14498 189.695296,98.2389151 C189.930434,97.8849461 189.869559,95.9390277 189.869559,94.819339 C189.869559,90.2995934 191.014141,86.9083772 190.999758,82.3591197 C190.943566,68.5271489 190.49637,50.4908308 180.14998,39.9204083 Z" id="react-path-12"/>
            </defs>
            <mask id="react-mask-11" fill="white">
              <rect x="0" y="0" width="264" height="280"/>
            </mask>
            <g id="Mask"/>
            <g id="Top/Short-Hair/Short-Flat" mask="url(#react-mask-11)">
              <g transform="translate(-1.000000, 0.000000)">
                <mask id="react-mask-10" fill="white">
                  <path d="M180.14998,39.9204083 C177.390206,37.1003988 174.185913,34.7068297 171.069252,32.3065503 C170.381566,31.777442 169.682843,31.2610833 169.010544,30.7118441 C168.857687,30.5870323 167.291999,29.4657388 167.104691,29.0530544 C166.653816,28.0602634 166.915042,28.8332916 166.977255,27.6485857 C167.055857,26.150508 170.11064,21.9193194 167.831176,20.9490079 C166.828413,20.522232 165.039628,21.6579526 164.077671,22.0330592 C162.196235,22.7671676 160.291721,23.3932399 158.346734,23.9330847 C159.278588,22.0763407 161.055333,18.3594977 157.71591,19.3543018 C155.114345,20.1293431 152.690052,22.1219709 150.075777,23.0594018 C150.940735,21.6415124 154.399901,17.2479341 151.274209,17.0023366 C150.301549,16.925839 147.471201,18.7503735 146.423952,19.1395717 C143.287223,20.3054888 140.083264,21.0590571 136.789999,21.6525844 C125.59203,23.6707114 112.497238,23.0953019 102.1368,28.1934632 C94.1494796,32.1236942 86.262502,38.2220278 81.648386,45.987539 C77.2011742,53.472559 75.537818,61.6641751 74.6069673,70.2412987 C73.9239644,76.535909 73.8684412,83.0425652 74.1878671,89.3599905 C74.2922241,91.4297869 74.5250203,100.970847 77.5319724,98.0813859 C79.0300967,96.641688 79.019059,90.8282073 79.3963495,88.8604076 C80.1472513,84.9452748 80.870057,81.0126951 82.122006,77.2227096 C84.3282191,70.5439339 86.9307879,63.4296587 92.4269209,58.8297383 C95.9539853,55.8782066 98.4307906,51.8889248 101.806002,48.9112229 C103.322188,47.5738572 102.165231,47.7130963 104.602902,47.888571 C106.240504,48.006337 107.885464,48.0512961 109.52641,48.0942421 C113.322394,48.1928837 117.124399,48.16772 120.921387,48.1811407 C128.56821,48.208653 136.179243,48.316689 143.818708,47.9164188 C147.213653,47.7385955 150.617965,47.6423024 154.00388,47.3282597 C155.895349,47.152785 159.251496,45.9405668 160.808488,46.8669256 C162.233362,47.7144383 163.71309,50.4817719 164.736257,51.615144 C167.153525,54.2935659 170.035717,56.3392052 172.862385,58.5354911 C178.756547,63.114945 181.732392,68.8666908 183.522515,76.023241 C185.305949,83.1532854 184.805905,89.76815 187.013456,96.78479 C187.401784,98.0184813 188.428965,100.14498 189.695296,98.2389151 C189.930434,97.8849461 189.869559,95.9390277 189.869559,94.819339 C189.869559,90.2995934 191.014141,86.9083772 190.999758,82.3591197 C190.943566,68.5271489 190.49637,50.4908308 180.14998,39.9204083 Z"/>
                </mask>
                <path d="M180.14998,39.9204083 C177.390206,37.1003988 174.185913,34.7068297 171.069252,32.3065503 C170.381566,31.777442 169.682843,31.2610833 169.010544,30.7118441 C168.857687,30.5870323 167.291999,29.4657388 167.104691,29.0530544 C166.653816,28.0602634 166.915042,28.8332916 166.977255,27.6485857 C167.055857,26.150508 170.11064,21.9193194 167.831176,20.9490079 C166.828413,20.522232 165.039628,21.6579526 164.077671,22.0330592 C162.196235,22.7671676 160.291721,23.3932399 158.346734,23.9330847 C159.278588,22.0763407 161.055333,18.3594977 157.71591,19.3543018 C155.114345,20.1293431 152.690052,22.1219709 150.075777,23.0594018 C150.940735,21.6415124 154.399901,17.2479341 151.274209,17.0023366 C150.301549,16.925839 147.471201,18.7503735 146.423952,19.1395717 C143.287223,20.3054888 140.083264,21.0590571 136.789999,21.6525844 C125.59203,23.6707114 112.497238,23.0953019 102.1368,28.1934632 C94.1494796,32.1236942 86.262502,38.2220278 81.648386,45.987539 C77.2011742,53.472559 75.537818,61.6641751 74.6069673,70.2412987 C73.9239644,76.535909 73.8684412,83.0425652 74.1878671,89.3599905 C74.2922241,91.4297869 74.5250203,100.970847 77.5319724,98.0813859 C79.0300967,96.641688 79.019059,90.8282073 79.3963495,88.8604076 C80.1472513,84.9452748 80.870057,81.0126951 82.122006,77.2227096 C84.3282191,70.5439339 86.9307879,63.4296587 92.4269209,58.8297383 C95.9539853,55.8782066 98.4307906,51.8889248 101.806002,48.9112229 C103.322188,47.5738572 102.165231,47.7130963 104.602902,47.888571 C106.240504,48.006337 107.885464,48.0512961 109.52641,48.0942421 C113.322394,48.1928837 117.124399,48.16772 120.921387,48.1811407 C128.56821,48.208653 136.179243,48.316689 143.818708,47.9164188 C147.213653,47.7385955 150.617965,47.6423024 154.00388,47.3282597 C155.895349,47.152785 159.251496,45.9405668 160.808488,46.8669256 C162.233362,47.7144383 163.71309,50.4817719 164.736257,51.615144 C167.153525,54.2935659 170.035717,56.3392052 172.862385,58.5354911 C178.756547,63.114945 181.732392,68.8666908 183.522515,76.023241 C185.305949,83.1532854 184.805905,89.76815 187.013456,96.78479 C187.401784,98.0184813 188.428965,100.14498 189.695296,98.2389151 C189.930434,97.8849461 189.869559,95.9390277 189.869559,94.819339 C189.869559,90.2995934 191.014141,86.9083772 190.999758,82.3591197 C190.943566,68.5271489 190.49637,50.4908308 180.14998,39.9204083 Z" id="Short-Hair" stroke="none" fill="#1F3140" fill-rule="evenodd"/>
                <g id="Skin/ðŸ‘¶ðŸ½-03-Brown" mask="url(#react-mask-10)" fill="#2c1b18">
                  <g transform="translate(0.000000, 0.000000) " id="Color">
                    <rect x="0" y="0" width="264" height="280"/>
                  </g>
                </g>
                <g id="Top/_Resources/Prescription-02" fill="none" transform="translate(62.000000, 85.000000)" stroke-width="1">
                  <defs>
                    <filter x="-0.8%" y="-2.4%" width="101.5%" height="109.8%" filterUnits="objectBoundingBox" id="react-filter-14">
                      <feOffset dx="0" dy="2" in="SourceAlpha" result="shadowOffsetOuter1"/>
                      <feColorMatrix values="0 0 0 0 0   0 0 0 0 0   0 0 0 0 0  0 0 0 0.2 0" type="matrix" in="shadowOffsetOuter1" result="shadowMatrixOuter1"/>
                      <feMerge>
                        <feMergeNode in="shadowMatrixOuter1"/>
                        <feMergeNode in="SourceGraphic"/>
                      </feMerge>
                    </filter>
                  </defs>
                  <g id="Wayfarers" filter="url(#react-filter-14)" transform="translate(6.000000, 7.000000)" fill="#252C2F">
                    <path d="M34,41 L31.2421498,41 C17.3147125,41 9,33.3359286 9,20.5 C9,10.127 10.8170058,0 32.5299306,0 L35.4700694,0 C57.1829942,0 59,10.127 59,20.5 C59,32.5686429 48.7212748,41 34,41 Z M32.3853606,6 C13,6 13,12.8410159 13,21.5015498 C13,28.5719428 16.116254,37 30.9709365,37 L34,37 C46.3649085,37 55,30.6270373 55,21.5015498 C55,12.8410159 55,6 35.6146394,6 L32.3853606,6 Z" id="Left" fill-rule="nonzero"/>
                    <path d="M96,41 L93.2421498,41 C79.3147125,41 71,33.3359286 71,20.5 C71,10.127 72.8170058,0 94.5299306,0 L97.4700694,0 C119.182994,0 121,10.127 121,20.5 C121,32.5686429 110.721275,41 96,41 Z M94.3853606,6 C75,6 75,12.8410159 75,21.5015498 C75,28.5719428 78.1194833,37 92.9709365,37 L96,37 C108.364909,37 117,30.6270373 117,21.5015498 C117,12.8410159 117,6 97.6146394,6 L94.3853606,6 Z" id="Right" fill-rule="nonzero"/>
                    <path d="M2.95454545,5.77156439 C3.64590909,5.09629136 11.2095455,0 32.5,0 C50.3513636,0 54.1302273,1.85267217 59.8502273,4.6518809 L60.2689233,4.85850899 C60.6666014,4.99901896 62.7002447,5.68982981 65.0790606,5.76579519 C67.2462948,5.67278567 69.1000195,5.08540191 69.641698,4.89719767 C76.1703915,1.7220864 82.5610971,0 97.5,0 C118.790455,0 126.354091,5.09629136 127.045455,5.77156439 C128.679318,5.77156439 130,7.06150904 130,8.65734659 L130,11.5431288 C130,13.1389663 128.679318,14.428911 127.045455,14.428911 C127.045455,14.428911 120.143997,14.428911 120.143997,17.3146932 C120.143997,20.2004754 118.181818,13.1389663 118.181818,11.5431288 L118.181818,8.73240251 C114.578575,7.35340151 108.128411,4.78617535 97.5,4.78617535 C85.6584651,4.78617535 79.7610984,6.88602813 74.7022935,8.97112368 L74.7588636,9.10752861 L74.7563667,11.0937608 L72.5391666,16.4436339 L69.8004908,15.3608351 C69.5558969,15.2641292 69.0281396,15.090392 68.2963505,14.9099044 C66.256272,14.4067419 64.1589087,14.253569 62.3040836,14.6343084 C61.6235903,14.7739931 60.9922286,14.9836085 60.4128127,15.266732 L57.7704824,16.5578701 L55.1266751,11.3962031 L55.2440909,9.10175705 L55.3248203,8.90683855 C50.9620526,6.87386374 46.9392639,4.78617535 32.5,4.78617535 C21.8721459,4.78617535 15.422131,7.3524397 11.8181818,8.7314671 L11.8181818,11.5431288 C11.8181818,13.1389663 8.86363636,20.2004754 8.86363636,17.3146932 C8.86363636,14.428911 2.95454545,14.428911 2.95454545,14.428911 C1.32363636,14.428911 0,13.1389663 0,11.5431288 L0,8.65734659 C0,7.06150904 1.32363636,5.77156439 2.95454545,5.77156439 Z" id="Stuff" fill-rule="nonzero"/>
                  </g>
                </g>
              </g>
            </g>
          </g>
        </g>
      </g>
    </g>
  </g>
  <path d="M 47.7 257.95 L 40.14 257.95 L 40.14 230.53 L 59.83 230.53 L 59.83 234.03 L 47.7 234.03 L 47.7 242.51 L 57.06 242.51 L 57.06 245.99 L 47.7 245.99 Z M 74.21 258.5 Q 72.51 258.5 70.53 258.11 Q 68.55 257.72 66.69 256.93 Q 64.82 256.14 63.3 254.96 Q 61.77 253.78 60.99 252.18 L 67.79 248.96 Q 67.79 250.28 68.33 251.43 Q 68.88 252.58 69.77 253.44 Q 70.67 254.29 71.82 254.79 Q 72.97 255.28 74.21 255.28 Q 75.39 255.28 76.51 254.93 Q 77.64 254.58 78.5 253.89 Q 79.37 253.21 79.9 252.21 Q 80.44 251.21 80.44 249.91 Q 80.44 248.49 79.95 247.47 Q 79.46 246.45 78.62 245.8 Q 77.77 245.15 76.64 244.85 Q 75.5 244.54 74.21 244.54 L 70.5 244.54 L 70.5 241.31 L 74.21 241.31 Q 75.1 241.31 75.95 241.08 Q 76.8 240.85 77.46 240.37 Q 78.11 239.9 78.51 239.18 Q 78.91 238.47 78.91 237.52 Q 78.91 236.45 78.55 235.73 Q 78.19 235 77.55 234.56 Q 76.91 234.11 76.06 233.91 Q 75.2 233.71 74.21 233.71 Q 73.26 233.71 72.36 233.96 Q 71.47 234.2 70.78 234.7 Q 70.1 235.19 69.68 235.95 Q 69.26 236.7 69.26 237.71 L 63.83 233.73 Q 64.63 232.74 65.89 232.03 Q 67.14 231.33 68.58 230.9 Q 70.02 230.47 71.5 230.27 Q 72.97 230.07 74.21 230.07 Q 75.35 230.07 76.64 230.2 Q 77.92 230.32 79.18 230.62 Q 80.44 230.93 81.6 231.44 Q 82.76 231.96 83.64 232.74 Q 84.51 233.52 85.03 234.6 Q 85.56 235.69 85.56 237.14 Q 85.56 238.01 85.18 238.84 Q 84.8 239.67 84.19 240.37 Q 83.58 241.08 82.8 241.62 Q 82.02 242.16 81.22 242.47 Q 82.55 242.75 83.77 243.41 Q 84.99 244.07 85.91 245.03 Q 86.83 245.99 87.38 247.23 Q 87.92 248.47 87.92 249.91 Q 87.92 251.76 87.3 253.12 Q 86.68 254.49 85.64 255.44 Q 84.61 256.39 83.23 256.99 Q 81.85 257.59 80.32 257.92 Q 78.8 258.26 77.22 258.38 Q 75.64 258.5 74.21 258.5 Z M 98.67 257.95 L 92.24 257.95 L 92.24 225.83 L 94.71 225.83 L 98.67 232.51 Z M 110.8 230.64 Q 110.8 231.37 110.53 232.01 Q 110.25 232.66 109.77 233.14 Q 109.3 233.61 108.65 233.89 Q 108 234.17 107.28 234.17 Q 106.56 234.17 105.92 233.89 Q 105.28 233.61 104.8 233.14 Q 104.33 232.66 104.05 232.01 Q 103.78 231.37 103.78 230.64 Q 103.78 229.92 104.05 229.28 Q 104.33 228.64 104.8 228.17 Q 105.28 227.69 105.92 227.42 Q 106.56 227.14 107.28 227.14 Q 108 227.14 108.65 227.42 Q 109.3 227.69 109.77 228.17 Q 110.25 228.64 110.53 229.28 Q 110.8 229.92 110.8 230.64 Z M 110.52 257.95 L 104.06 257.95 L 104.06 235.98 L 110.52 235.98 Z M 135.35 257.95 L 128.91 257.95 L 123.52 250.24 L 118.02 257.95 L 113.56 257.95 L 121.85 247.82 L 113.56 235.96 L 120 235.96 L 125.22 243.42 L 130.89 235.96 L 135.35 235.96 L 126.89 245.82 Z M 151.41 257.95 L 143.85 257.95 L 143.85 234.03 L 136.38 234.03 L 136.38 230.53 L 158.87 230.53 L 158.87 234.03 L 151.41 234.03 Z M 165.37 247.52 Q 166.55 247.78 167.73 247.93 Q 168.91 248.09 170.11 248.09 Q 171.36 248.09 172.44 247.85 Q 173.52 247.61 174.31 247.05 Q 175.1 246.49 175.55 245.55 Q 176.01 244.62 176.01 243.23 Q 176.01 242.11 175.71 241.17 Q 175.4 240.24 174.8 239.57 Q 174.2 238.91 173.33 238.54 Q 172.45 238.17 171.29 238.17 Q 170.2 238.17 169.34 238.57 Q 168.47 238.97 167.81 239.64 Q 167.16 240.32 166.69 241.21 Q 166.22 242.11 165.92 243.08 Q 165.61 244.05 165.48 245.04 Q 165.35 246.03 165.35 246.91 Q 165.35 247.06 165.35 247.21 Q 165.35 247.36 165.37 247.52 Z M 181.23 243.17 Q 181.23 244.53 180.79 245.58 Q 180.35 246.64 179.6 247.44 Q 178.85 248.24 177.86 248.79 Q 176.87 249.34 175.74 249.7 Q 174.62 250.05 173.43 250.2 Q 172.24 250.35 171.12 250.35 Q 169.69 250.35 168.3 250.15 Q 166.91 249.95 165.56 249.51 Q 165.77 250.77 166.22 251.9 Q 166.68 253.04 167.44 253.89 Q 168.2 254.73 169.32 255.23 Q 170.43 255.72 171.95 255.72 Q 172.96 255.72 173.88 255.42 Q 174.79 255.11 175.55 254.56 Q 176.31 254.01 176.9 253.25 Q 177.48 252.49 177.84 251.55 L 180.62 252.58 Q 179.99 254.09 178.9 255.18 Q 177.8 256.28 176.42 256.99 Q 175.04 257.7 173.49 258.05 Q 171.93 258.39 170.41 258.39 Q 167.9 258.39 165.77 257.54 Q 163.63 256.69 162.09 255.17 Q 160.55 253.65 159.67 251.53 Q 158.8 249.42 158.8 246.91 Q 158.8 244.39 159.67 242.28 Q 160.55 240.16 162.09 238.64 Q 163.63 237.12 165.77 236.27 Q 167.9 235.42 170.41 235.42 Q 171.63 235.42 172.91 235.59 Q 174.18 235.77 175.38 236.14 Q 176.58 236.51 177.65 237.1 Q 178.71 237.69 179.5 238.56 Q 180.29 239.42 180.76 240.56 Q 181.23 241.71 181.23 243.17 Z M 205.54 241.4 L 202.76 242.51 Q 202.09 240.41 200.53 239.29 Q 198.97 238.17 196.78 238.17 Q 195.6 238.17 194.67 238.54 Q 193.75 238.91 193.06 239.56 Q 192.36 240.2 191.88 241.06 Q 191.39 241.92 191.09 242.89 Q 190.78 243.86 190.65 244.9 Q 190.51 245.93 190.51 246.91 Q 190.51 247.95 190.63 249.02 Q 190.74 250.09 191.02 251.07 Q 191.29 252.05 191.75 252.9 Q 192.21 253.74 192.9 254.37 Q 193.6 255 194.56 255.36 Q 195.52 255.72 196.78 255.72 Q 197.79 255.72 198.7 255.42 Q 199.62 255.11 200.38 254.56 Q 201.14 254.01 201.73 253.25 Q 202.32 252.49 202.66 251.55 L 205.46 252.58 Q 204.83 254.09 203.8 255.18 Q 202.76 256.28 201.44 256.99 Q 200.13 257.7 198.63 258.05 Q 197.12 258.39 195.58 258.39 Q 193.08 258.39 190.95 257.54 Q 188.82 256.69 187.27 255.16 Q 185.72 253.63 184.84 251.52 Q 183.96 249.42 183.96 246.91 Q 183.96 244.37 184.83 242.26 Q 185.7 240.15 187.24 238.62 Q 188.78 237.1 190.91 236.26 Q 193.05 235.42 195.58 235.42 Q 197.18 235.42 198.7 235.78 Q 200.23 236.13 201.53 236.86 Q 202.83 237.59 203.87 238.72 Q 204.91 239.84 205.54 241.4 Z M 231.83 245.34 Q 231.83 247.57 231.29 249.99 Q 230.75 252.41 229.78 254.73 Q 228.8 257.06 227.45 259.1 Q 226.1 261.15 224.48 262.64 L 222.06 261.32 Q 222.58 260.37 223.03 259.19 Q 223.49 258.01 223.86 256.68 Q 224.23 255.36 224.53 253.95 Q 224.82 252.54 225.02 251.16 Q 225.22 249.78 225.33 248.48 Q 225.43 247.17 225.43 246.05 Q 225.43 245.31 225.38 244.46 Q 225.32 243.61 225.14 242.76 Q 224.96 241.92 224.65 241.14 Q 224.35 240.36 223.84 239.76 Q 223.34 239.17 222.62 238.81 Q 221.91 238.45 220.94 238.45 Q 219.99 238.45 219.24 238.88 Q 218.5 239.31 217.93 240 Q 217.36 240.7 216.95 241.59 Q 216.54 242.49 216.28 243.43 Q 216.03 244.37 215.91 245.29 Q 215.8 246.2 215.8 246.93 L 215.8 257.95 L 209.34 257.95 L 209.34 227.86 L 215.78 227.86 L 215.78 239.19 Q 217.02 237.38 218.82 236.4 Q 220.62 235.42 222.81 235.42 Q 225.09 235.42 226.79 236.17 Q 228.48 236.91 229.6 238.23 Q 230.73 239.56 231.28 241.37 Q 231.83 243.19 231.83 245.34 Z" transform="matrix(1.127045, 0, 0, 1.146386, -22.002041, -37.059544)" style="fill-rule: evenodd; paint-order: fill; stroke: rgb(255, 255, 255); stroke-linecap: round; stroke-linejoin: round;"/>
</svg>